<svg width="32" height="32" viewBox="0 0 32 32" fill="none" xmlns="http://www.w3.org/2000/svg">
<rect width="32" height="32" rx="16" fill="#303141"/>
<path d="M20.6032 21.38L22.3825 22.2247C22.688 22.3697 23.0542 22.2382 23.1812 21.9248C23.6717 20.7139 24.0619 19.2416 24.1901 17.7237C24.3298 16.0691 24.1571 14.3773 23.4808 12.9134L23.4799 12.9138C23.4498 12.8507 23.4193 12.7878 23.3883 12.7251C23.1556 12.2915 22.7198 11.7597 22.078 11.4078C21.3546 11.0112 20.3496 10.8317 19.0309 11.3116C18.7511 11.4134 18.4663 11.5449 18.1807 11.7019C18.5394 12.2948 18.7964 13.0946 18.8169 14.1491C18.8353 15.1021 18.6762 16.0046 18.4323 16.8087L21.0162 17.7407C21.3995 17.879 21.6501 18.2559 21.5855 18.6582C21.4635 19.4176 21.2271 20.1567 20.8861 20.8546C20.8006 21.0297 20.7065 21.2055 20.6032 21.38Z" fill="white"/>
<path d="M12.7676 20.7489C12.9649 20.6911 13.1734 20.6077 13.3921 20.4916C14.3185 19.9999 15.0191 19.197 15.5171 18.4093C15.8675 17.8553 16.1236 17.2994 16.2907 16.8452C16.3414 16.7075 16.4929 16.633 16.6309 16.6828L20.6788 18.1428C20.9433 18.2382 21.1102 18.503 21.0563 18.779C20.9514 19.3169 20.7542 19.9792 20.4285 20.6459C19.9528 21.6196 19.2114 22.5855 18.1021 23.1961C17.1855 23.7006 16.248 23.9609 15.3717 24C14.4169 23.843 13.7905 23.4404 13.3914 22.9027C12.9689 22.3335 12.781 21.5853 12.7676 20.7489Z" fill="white"/>
<path d="M15.0857 8.07175C17.4448 7.80355 19.1978 8.31061 20.5283 9.22332C21.2353 9.70828 21.829 10.3119 22.3325 10.985L22.3271 10.982C21.4683 10.5112 20.3064 10.3245 18.8528 10.8535C16.9014 11.5636 14.7977 13.5647 13.6777 15.6054C12.9513 16.929 12.2349 18.9586 12.262 20.75C12.2755 21.6478 12.4763 22.5085 12.9809 23.1884C13.1566 23.4251 13.3667 23.6366 13.6136 23.8185C11.8166 23.3842 9.55548 22.175 8.33691 19.3877C7.2735 16.9554 7.77912 14.2628 9.15691 12.0987C10.5368 9.93135 12.7652 8.33556 15.0857 8.07175Z" fill="white"/>
</svg>
