<svg width="115" height="34" viewBox="0 0 115 34" fill="none" xmlns="http://www.w3.org/2000/svg">
<path d="M25.8351 27.8272L29.9776 29.7939C30.2831 29.9389 30.6487 29.8073 30.783 29.497C31.8817 26.9591 32.775 23.7675 33.0536 20.4688C33.3349 17.1389 32.9873 13.7342 31.6263 10.788L31.6244 10.7888C31.5639 10.6619 31.5025 10.5353 31.44 10.4091C30.9717 9.53647 30.0947 8.46617 28.803 7.75799C27.3472 6.95977 25.3247 6.59851 22.6707 7.5643C22.1076 7.76919 21.5344 8.03396 20.9596 8.34981C21.6816 9.54315 22.1989 11.1526 22.2399 13.2748C22.2771 15.1928 21.9568 17.0092 21.4661 18.6275L27.322 20.7397C27.7053 20.8779 27.9531 21.254 27.9068 21.6589C27.7044 23.4295 27.1936 25.1545 26.4044 26.7698C26.2322 27.1222 26.0428 27.476 25.8351 27.8272Z" fill="#2C2E3F"/>
<path d="M10.0668 26.5571C10.464 26.4409 10.8834 26.2729 11.3237 26.0393C13.188 25.0497 14.5979 23.4339 15.6003 21.8487C16.3726 20.6274 16.9174 19.4013 17.2486 18.445C17.2966 18.3063 17.4481 18.232 17.5861 18.2818L26.4449 21.4771C26.7094 21.5725 26.8754 21.837 26.8321 22.1148C26.6521 23.2682 26.2402 24.8032 25.4845 26.3499C24.5271 28.3094 23.0351 30.2535 20.8026 31.4822C18.9578 32.4976 17.0712 33.0213 15.3076 33.1001C13.386 32.7842 12.1254 31.9739 11.3222 30.8918C10.4719 29.7461 10.0938 28.2405 10.0668 26.5571Z" fill="#2C2E3F"/>
<path d="M14.7318 1.04418C19.4796 0.504424 23.0074 1.52488 25.6852 3.36173C27.108 4.33772 28.3028 5.55255 29.3162 6.90715L29.3053 6.90116C27.5769 5.95352 25.2386 5.57795 22.3132 6.64251C18.3859 8.07164 14.1522 12.0988 11.8982 16.2057C10.4362 18.8695 8.99444 22.9542 9.04895 26.5593C9.07627 28.3663 9.48039 30.0984 10.4959 31.4667C10.8494 31.943 11.2722 32.3687 11.7692 32.7348C8.15267 31.8608 3.60212 29.4272 1.14974 23.8178C-0.990393 18.9226 0.027185 13.5038 2.8 9.14857C5.57705 4.78665 10.0617 1.57511 14.7318 1.04418Z" fill="#2C2E3F"/>
<path d="M55.4655 10.3853C55.4825 10.3292 55.5342 10.2909 55.5928 10.2909H58.7249C58.7984 10.2909 58.858 10.3505 58.858 10.424V26.2966C58.858 26.3702 58.7984 26.4297 58.7249 26.4297H55.4414C55.3814 26.4297 55.3289 26.3896 55.313 26.3318L54.9387 24.9653C53.519 26.1906 51.6674 26.9079 49.538 26.9079C44.5385 26.9079 40.8043 23.2319 40.8043 18.3603C40.8043 13.4888 44.5385 9.84259 49.538 9.84259C51.6983 9.84259 53.5808 10.5898 55.0312 11.8151L55.4655 10.3853ZM49.9083 22.7836C52.5315 22.7836 54.4449 20.9007 54.4449 18.3603C54.4449 15.8199 52.5315 13.9371 49.9083 13.9371C47.2851 13.9371 45.3717 15.8199 45.3717 18.3603C45.3717 20.8708 47.2851 22.7836 49.9083 22.7836Z" fill="#2C2E3F"/>
<path d="M73.4981 10.3777C73.5174 10.3255 73.5672 10.2909 73.6229 10.2909H77.992C78.0866 10.2909 78.151 10.3868 78.1152 10.4744L71.6199 26.3471C71.5994 26.3971 71.5507 26.4297 71.4967 26.4297H67.5082C67.4546 26.4297 67.4063 26.3976 67.3855 26.3483L60.7081 10.4756C60.6711 10.3879 60.7356 10.2909 60.8307 10.2909H65.3526C65.408 10.2909 65.4576 10.3252 65.4771 10.3771L69.5183 21.1099L73.4981 10.3777Z" fill="#2C2E3F"/>
<path d="M92.9867 10.2909H96.2174C96.2909 10.2909 96.3505 10.3505 96.3505 10.424V26.2966C96.3505 26.3702 96.2909 26.4297 96.2174 26.4297H92.9339C92.874 26.4297 92.8214 26.3896 92.8055 26.3318L92.4312 24.9653C91.0116 26.1906 89.1599 26.9079 87.0305 26.9079C82.031 26.9079 78.2968 23.2319 78.2968 18.3603C78.2968 13.4888 82.031 9.84259 87.0305 9.84259C89.1908 9.84259 91.0733 10.5898 92.5238 11.8151L92.9867 10.2909ZM87.4008 22.7836C90.024 22.7836 91.9374 20.9007 91.9374 18.3603C91.9374 15.8199 90.024 13.9371 87.4008 13.9371C84.7777 13.9371 82.8643 15.8199 82.8643 18.3603C82.8643 20.8708 84.7777 22.7836 87.4008 22.7836Z" fill="#2C2E3F"/>
<path d="M102.237 8.70989C101.073 8.70989 100.129 7.76588 100.129 6.60139C100.129 5.4369 101.073 4.4929 102.237 4.4929H102.495C103.66 4.4929 104.604 5.4369 104.604 6.60139C104.604 7.76588 103.66 8.70989 102.495 8.70989H102.237ZM100.231 26.4297C100.158 26.4297 100.098 26.3702 100.098 26.2966V10.424C100.098 10.3505 100.158 10.2909 100.231 10.2909H104.471C104.544 10.2909 104.604 10.3505 104.604 10.424V26.2966C104.604 26.3702 104.544 26.4297 104.471 26.4297H100.231Z" fill="#2C2E3F"/>
<path d="M112.817 21.1299C112.817 21.5102 112.898 21.7787 113.059 21.9353C113.244 22.0695 113.533 22.1366 113.926 22.1366C114.121 22.1366 114.304 22.1366 114.57 22.1366C114.836 22.1366 115 22.3678 115 22.5795V25.9293L115 25.9446C115 26.1887 114.807 26.4054 114.5 26.4054C113.917 26.4054 113.433 26.4297 112.817 26.4297L111.984 26.4297C110.806 26.4297 109.894 26.1277 109.247 25.5236C108.623 24.9195 108.311 23.8456 108.311 22.3019V4.626C108.311 4.55249 108.371 4.4929 108.444 4.4929L112.684 4.49286C112.757 4.49286 112.817 4.55245 112.817 4.62597V21.1299Z" fill="#2C2E3F"/>
</svg>
