<svg width="32" height="32" viewBox="0 0 32 32" fill="none" xmlns="http://www.w3.org/2000/svg">
<rect width="32" height="32" rx="16" fill="#FF4E9F"/>
<g clip-path="url(#clip0_34_3436)">
<path d="M19.2905 9.25C19.421 9.3684 19.5429 9.4923 19.6561 9.61896L19.6328 9.59142C19.5255 9.47027 19.4094 9.35738 19.2905 9.25ZM11.2762 10.8057L6.13456 16.541C4.43131 18.4408 4.67505 21.3016 6.67716 22.9206C7.53603 23.6172 8.63284 24 9.76447 24C11.1659 24 12.4891 23.419 13.3973 22.4085L15.8114 19.7184L14.0937 17.8076L11.4097 20.8005C10.9977 21.2576 10.3999 21.5219 9.76447 21.5219C9.40467 21.5219 8.86787 21.4365 8.3688 21.0345C7.93065 20.6794 7.6637 20.1837 7.61728 19.6386C7.57085 19.0934 7.75075 18.5647 8.12506 18.149L11.3923 14.5062C11.2356 14.1786 11.1166 13.8344 11.0441 13.482C11.0209 13.3636 11.0006 13.2452 10.9831 13.1268C10.9744 13.0717 10.9686 13.0166 10.9628 12.9616C10.9628 12.9423 10.9599 12.9203 10.957 12.8983C10.9541 12.8432 10.9483 12.7854 10.9483 12.7275C10.9425 12.5981 10.9425 12.4687 10.9483 12.3366C10.9483 12.2732 10.9541 12.2071 10.9599 12.1411C10.9628 12.0888 10.9686 12.0364 10.9744 11.9841C10.9773 11.9786 10.9773 11.9731 10.9773 11.9676C10.986 11.907 10.9948 11.8465 11.0035 11.7886C11.0557 11.45 11.1485 11.1223 11.2762 10.8057ZM14.6972 10.8938C14.6682 10.9131 14.6421 10.9351 14.616 10.9571C14.645 10.9351 14.6711 10.9131 14.6972 10.8938ZM14.616 10.9571C14.616 10.9571 14.6073 10.9626 14.6044 10.9654C14.5898 10.9764 14.5753 10.9874 14.5637 11.0012C14.5811 10.9846 14.5986 10.9709 14.616 10.9571ZM17.5988 11.1526C17.6162 11.1691 17.6336 11.1884 17.651 11.2077L17.6452 11.1994C17.6307 11.1829 17.6162 11.1691 17.5988 11.1526ZM14.4041 11.1526C14.3867 11.1691 14.3722 11.1829 14.3577 11.1994L14.3519 11.2077C14.3693 11.1884 14.3867 11.1719 14.4041 11.1526ZM17.651 11.2077L17.6946 11.2572C17.6801 11.2407 17.6656 11.2242 17.651 11.2077ZM14.349 11.2077C14.3345 11.2242 14.32 11.2407 14.3055 11.2572L14.349 11.2077ZM20.7616 12.3366C20.7616 12.3503 20.7616 12.3668 20.7616 12.3806C20.7616 12.3641 20.7616 12.3503 20.7616 12.3366ZM20.7645 12.3806C20.7703 12.5045 20.7645 12.6284 20.7645 12.7523C20.7703 12.678 20.7732 12.6009 20.7732 12.5265C20.7732 12.477 20.7703 12.4302 20.7674 12.3806H20.7645Z" fill="#F7F7F7"/>
<path d="M15.9999 8C15.9303 8 15.8577 8.00275 15.7881 8.00551C15.7213 8.00826 15.6546 8.01101 15.585 8.01927C15.585 8.01927 15.5821 8.01927 15.5792 8.01927C15.5763 8.01927 15.5705 8.01927 15.5676 8.01927C15.5153 8.02203 15.4602 8.03029 15.4051 8.03855C15.376 8.03855 15.347 8.0413 15.318 8.04956C15.2716 8.04956 15.2281 8.06057 15.1816 8.06883C14.9669 8.10188 14.7551 8.15144 14.5491 8.21477C14.4911 8.23129 14.4359 8.25056 14.3779 8.26983C14.3634 8.27534 14.3489 8.28085 14.3344 8.28635C14.2821 8.30287 14.227 8.3249 14.1748 8.34417C14.0848 8.37997 13.9978 8.41852 13.9107 8.45706C13.8034 8.50663 13.7018 8.55894 13.6003 8.61676C13.5393 8.6498 13.4784 8.68284 13.4204 8.72139C13.3623 8.75718 13.3043 8.79298 13.2463 8.83153C13.1882 8.87007 13.1331 8.91137 13.0751 8.95268C13.0199 8.99398 12.9677 9.03528 12.9126 9.07933C12.84 9.13715 12.7704 9.19773 12.7008 9.26106L12.5586 9.39597C11.7984 10.1449 11.3399 11.1113 11.25 12.1631C11.1861 12.8955 11.3109 13.6142 11.6011 14.275C11.6417 14.3659 11.6881 14.4595 11.7345 14.5476C11.9057 14.8725 12.1175 15.1754 12.37 15.459L14.0964 17.3808L14.285 17.5928L15.9999 19.5065L16.0231 19.5312L16.1914 19.7185L18.6055 22.4085C19.5108 23.419 20.8369 24 22.2384 24C23.3671 24 24.4639 23.6173 25.3257 22.9207C27.3278 21.3017 27.5715 18.4409 25.8654 16.541L20.7208 10.8057C21.1996 11.9924 21.1706 13.3278 20.6106 14.5063L23.8778 18.149C24.2521 18.5648 24.432 19.0934 24.3855 19.6386C24.3391 20.1838 24.0722 20.6794 23.634 21.0346C23.135 21.4366 22.5982 21.5219 22.2384 21.5219C21.6029 21.5219 21.0023 21.2576 20.5931 20.8006L17.9063 17.8049L17.7409 17.6176L17.7176 17.5928L16.0028 15.6792L15.8113 15.47L14.3605 13.851C13.9862 13.4352 13.8063 12.9066 13.8527 12.3614C13.8585 12.2898 13.8672 12.221 13.8846 12.1521C13.9456 11.8217 14.0906 11.5161 14.3083 11.2573L14.3576 11.1994C14.3721 11.1829 14.3866 11.1692 14.404 11.1526C14.4272 11.1251 14.4533 11.0976 14.4824 11.0728C14.5085 11.048 14.5346 11.0232 14.5636 11.0012C14.5752 10.9874 14.5897 10.9764 14.6042 10.9654C14.6361 10.9406 14.6681 10.9158 14.6971 10.8938C14.7406 10.8635 14.7812 10.836 14.8247 10.8112C14.8625 10.7864 14.9002 10.7644 14.9379 10.7451C14.9843 10.7176 15.0308 10.6956 15.0772 10.6736C15.1062 10.6598 15.1381 10.646 15.17 10.635C15.1991 10.624 15.231 10.6102 15.2629 10.602C15.3006 10.5882 15.3383 10.5744 15.376 10.5662C15.4283 10.5496 15.4805 10.5386 15.5298 10.5276C15.5705 10.5194 15.6111 10.5111 15.6488 10.5056C15.6749 10.5001 15.6981 10.4973 15.7213 10.4946C15.7678 10.4891 15.8113 10.4863 15.8548 10.4836C15.9041 10.4808 15.9506 10.4781 15.9941 10.4781H16.0057C16.0492 10.4781 16.0956 10.4808 16.145 10.4836C16.1885 10.4863 16.232 10.4891 16.2784 10.4946C16.3046 10.4946 16.3278 10.5028 16.351 10.5056C16.4409 10.5194 16.5338 10.5386 16.6324 10.5689C16.6702 10.5772 16.705 10.5882 16.7398 10.602C16.7688 10.6102 16.8007 10.624 16.8327 10.635C16.8646 10.6488 16.8965 10.6625 16.9255 10.6736C16.9835 10.7011 17.0358 10.7286 17.0909 10.7589C17.1054 10.7672 17.1199 10.7754 17.1344 10.7837C17.1925 10.8167 17.2476 10.8525 17.3027 10.8938H17.3056C17.3549 10.9296 17.4014 10.9654 17.4449 11.0067C17.471 11.026 17.4971 11.0508 17.5203 11.0728C17.5494 11.0976 17.5755 11.1251 17.5987 11.1526C17.6161 11.1692 17.6306 11.1829 17.6451 11.1994L17.6944 11.2573C17.9121 11.5161 18.0571 11.8217 18.1181 12.1521C18.1355 12.221 18.1442 12.2898 18.15 12.3614C18.1964 12.9066 18.0165 13.4352 17.6422 13.851L16.1914 15.47L17.9063 17.3808L19.6298 15.459C19.8851 15.1726 20.097 14.867 20.2653 14.5448C20.3146 14.454 20.3581 14.3631 20.4016 14.2722C20.5902 13.8427 20.7034 13.3967 20.7469 12.9451C20.7527 12.8818 20.7585 12.8157 20.7614 12.7524C20.7672 12.6147 20.7701 12.4743 20.7614 12.3366V12.3311C20.7614 12.254 20.7527 12.1769 20.744 12.0998C20.744 12.0558 20.7353 12.0117 20.7295 11.9676C20.7121 11.8327 20.6831 11.6978 20.6541 11.5629C20.6338 11.4748 20.6106 11.3867 20.5873 11.3013C20.4074 10.6956 20.097 10.1201 19.6559 9.619C19.5428 9.49234 19.4209 9.36844 19.2903 9.25004C19.1133 9.08759 18.9218 8.94166 18.7216 8.8095C18.6752 8.77921 18.6288 8.74892 18.5823 8.72139C18.5243 8.68284 18.4634 8.6498 18.4024 8.61676C18.2806 8.54793 18.1587 8.4846 18.031 8.42953C17.9672 8.402 17.9034 8.37446 17.8395 8.34968C17.7757 8.3249 17.7118 8.30012 17.6451 8.27809C17.5813 8.25331 17.5145 8.23404 17.4478 8.21477C17.2476 8.15144 17.0416 8.10463 16.8298 8.07159C16.7775 8.06057 16.7253 8.05231 16.6702 8.04681C16.647 8.0413 16.6266 8.03855 16.6005 8.03855C16.5454 8.03029 16.4874 8.02203 16.4293 8.01927C16.4293 8.01927 16.4264 8.01927 16.4235 8.01927C16.4235 8.01927 16.4206 8.01927 16.4177 8.01927C16.351 8.01101 16.2843 8.00826 16.2146 8.00551C16.145 8.00275 16.0724 8 15.9999 8Z" fill="#F7F7F7"/>
</g>
<defs>
<clipPath id="clip0_34_3436">
<rect width="22" height="16" fill="white" transform="translate(5 8)"/>
</clipPath>
</defs>
</svg>
